HIERARCHY
ROOT Hips
{
    OFFSET 0.000000 0.000000 0.000000
    CHANNELS 6 Xposition Yposition Zposition Zrotation Xrotation Yrotation
    JOINT Spine
    {
        OFFSET -0.000000 0.081343 0.000000
        CHANNELS 3 Zrotation Xrotation Yrotation
        JOINT Spine1
        {
            OFFSET -0.000000 0.243280 0.000000
            CHANNELS 3 Zrotation Xrotation Yrotation
            JOINT Neck
            {
                OFFSET -0.000000 0.242281 0.022026
                CHANNELS 3 Zrotation Xrotation Yrotation
                JOINT Head
                {
                    OFFSET -0.000000 0.149025 -0.021289
                    CHANNELS 3 Zrotation Xrotation Yrotation
                    End Site
                    {
                        OFFSET -0.000000 0.198396 0.000000
                    }
                }
            }
            JOINT LeftShoulder
            {
                OFFSET 0.039707 0.224479 -0.002125
                CHANNELS 3 Zrotation Xrotation Yrotation
                JOINT LeftArm
                {
                    OFFSET 0.116942 0.000000 0.000000
                    CHANNELS 3 Zrotation Xrotation Yrotation
                    JOINT LeftForeArm
                    {
                        OFFSET 0.282002 0.000000 0.000000
                        CHANNELS 3 Zrotation Xrotation Yrotation
                        JOINT LeftHand
                        {
                            OFFSET 0.358743 0.000000 0.000000
                            CHANNELS 3 Zrotation Xrotation Yrotation
                            End Site
                            {
                                OFFSET 0.148797 0.000000 0.000000
                            }
                        }
                    }
                }
            }
            JOINT RightShoulder
            {
                OFFSET -0.039404 0.224479 -0.002125
                CHANNELS 3 Zrotation Xrotation Yrotation
                JOINT RightArm
                {
                    OFFSET -0.116942 0.000000 0.000000
                    CHANNELS 3 Zrotation Xrotation Yrotation
                    JOINT RightForeArm
                    {
                        OFFSET -0.282002 0.000000 0.000000
                        CHANNELS 3 Zrotation Xrotation Yrotation
                        JOINT RightHand
                        {
                            OFFSET -0.358743 0.000000 0.000000
                            CHANNELS 3 Zrotation Xrotation Yrotation
                            End Site
                            {
                                OFFSET -0.148797 0.000000 0.000000
                            }
                        }
                    }
                }
            }
        }
    }
    JOINT LeftUpLeg
    {
        OFFSET 0.099198 0.000000 0.000000
        CHANNELS 3 Zrotation Xrotation Yrotation
        JOINT LeftLeg
        {
            OFFSET -0.000000 -0.332973 0.000000
            CHANNELS 3 Zrotation Xrotation Yrotation
            JOINT LeftFoot
            {
                OFFSET -0.000000 -0.491254 0.000000
                CHANNELS 3 Zrotation Xrotation Yrotation
                JOINT LeftToeBase
                {
                    OFFSET -0.000000 -0.064479 0.148797
                    CHANNELS 3 Zrotation Xrotation Yrotation
                    End Site
                    {
                        OFFSET -0.000000 0.000000 0.039679
                    }
                }
            }
        }
    }
    JOINT RightUpLeg
    {
        OFFSET -0.099198 0.000000 0.000000
        CHANNELS 3 Zrotation Xrotation Yrotation
        JOINT RightLeg
        {
            OFFSET -0.000000 -0.332973 0.000000
            CHANNELS 3 Zrotation Xrotation Yrotation
            JOINT RightFoot
            {
                OFFSET -0.000000 -0.491254 0.000000
                CHANNELS 3 Zrotation Xrotation Yrotation
                JOINT RightToeBase
                {
                    OFFSET -0.000000 -0.064479 0.148797
                    CHANNELS 3 Zrotation Xrotation Yrotation
                    End Site
                    {
                        OFFSET -0.000000 0.000000 0.039679
                    }
                }
            }
        }
    }
}
MOTION
Frames:    9
Frame Time:    0.010000
-0.163904    0.875236    0.599868    -1.083310    -5.762700    42.295399    0.934137    1.596825    4.235065    -4.807329    9.346928    1.809504    11.437421    15.810572    18.917049    -7.605657    -16.321415    17.533142    -15.957704    28.166653    4.958121    -42.612007    16.275167    -33.130215    3.662806    -30.842754    -81.314468    11.418648    -27.890766    2.404843    5.146744    25.651728    15.356949    28.540802    37.505409    44.514309    -22.710318    0.564358    36.249176    -0.337465    8.090185    -2.979514    31.440325    -10.193095    6.708782    -15.116419    14.612920    21.144871    1.990383    -5.974160    25.598671    0.000000    0.000000    0.000000    -0.346903    -0.976965    -6.310145    3.879374    18.393463    -9.172405    7.887968    -11.817033    -19.514879    0.000000    0.000000    0.000000    
-0.158031    0.874436    0.595665    -1.317153    -5.836682    43.097275    1.020983    1.315642    4.092179    -4.893807    8.962236    1.752299    11.446596    15.873501    18.831291    -7.258553    -16.257555    17.549524    -16.145687    28.021606    5.228661    -42.951153    15.884791    -32.912674    3.810258    -30.684748    -81.801460    11.867373    -27.594170    2.276435    5.129835    25.665159    15.323487    28.684458    37.508015    44.215000    -23.275713    0.977919    37.094990    -0.414305    8.881579    -2.069905    32.415581    -9.404081    7.859450    -14.977294    14.102012    22.538939    2.117735    -6.260766    26.514822    0.000000    0.000000    0.000000    -0.588367    -0.779207    -7.189203    3.796159    18.237244    -6.496919    7.864264    -12.225171    -22.037111    0.000000    0.000000    0.000000    
-0.152494    0.874011    0.592288    -1.528688    -6.134656    43.898369    0.992085    1.205001    4.006027    -4.721566    8.397015    1.686436    11.475431    16.270124    18.692616    -6.886209    -16.321047    17.546103    -16.257725    28.094301    5.242061    -43.312439    15.443824    -32.619938    4.501134    -30.480894    -81.816261    10.369772    -26.915600    1.788712    5.173184    25.828890    15.345768    29.085049    37.139431    43.632351    -23.258762    1.218326    38.033108    -0.449658    9.326863    -1.893881    33.504013    -8.494230    9.114243    -14.831115    13.769863    22.742592    2.551954    -6.048169    27.755869    0.000000    0.000000    0.000000    -0.480638    -0.611060    -8.051059    3.398600    18.323629    -6.141275    8.623703    -12.071984    -22.247814    0.000000    0.000000    0.000000    
-0.146403    0.873427    0.588107    -1.698009    -6.286664    44.817101    1.040400    1.027963    3.806099    -5.090388    7.726933    1.616974    12.290626    17.088243    18.519188    -7.163677    -16.676657    17.363306    -15.881269    28.394085    5.189251    -44.078922    14.547582    -32.445705    4.600320    -29.790619    -82.131775    10.360970    -26.119360    1.605036    5.637767    26.076809    15.346955    28.550362    37.841160    43.449959    -23.836952    0.486137    38.458035    -0.451779    8.910867    -2.113990    34.270981    -7.789793    9.671735    -14.759459    13.240266    24.100780    3.043205    -6.011241    28.638988    0.000000    0.000000    0.000000    -0.603555    -0.435635    -8.897654    3.133383    18.300303    -5.256895    8.991921    -11.931529    -23.262205    0.000000    0.000000    0.000000    
-0.139382    0.872617    0.582750    -1.819599    -6.255847    45.935928    0.885725    0.651027    3.532115    -4.551064    7.844166    1.492496    11.303014    16.338758    18.422676    -6.218813    -16.508688    17.444767    -16.630692    27.919561    5.417198    -43.624435    15.034248    -32.339653    5.119702    -30.272640    -82.170601    10.451036    -26.222885    1.420098    5.143054    25.770195    14.929911    29.235308    37.556545    43.146278    -23.741699    0.683851    39.209019    -0.414746    9.247662    -2.242469    34.635868    -7.550379    10.744584    -14.445004    13.158607    25.142897    3.455023    -6.328260    29.215395    0.000000    0.000000    0.000000    -1.082318    -0.495239    -10.047125    2.921549    18.537649    -4.833644    9.661710    -11.816870    -23.511341    0.000000    0.000000    0.000000    
-0.132262    0.872229    0.577556    -1.809973    -6.239239    47.274288    0.687782    0.476178    3.137560    -4.460294    7.582211    1.343739    11.016581    15.855529    18.262663    -5.319519    -16.073612    17.494900    -16.818218    27.860569    5.511478    -43.547054    15.064150    -32.344234    5.554389    -30.196196    -82.069504    10.587000    -25.831692    1.132914    5.205737    25.572811    14.628222    30.133135    36.965137    42.326054    -22.816347    0.518830    40.034214    -2.237798    8.973254    -2.637894    34.779980    -7.286936    11.050632    -14.298373    12.785844    26.498692    3.983804    -6.525419    29.832886    0.000000    0.000000    0.000000    -1.892912    -0.343863    -9.813857    3.609589    18.786791    -4.719828    10.218603    -12.036339    -24.999680    0.000000    0.000000    0.000000    
-0.125681    0.871684    0.572326    -2.013566    -6.232749    48.454475    0.557677    0.285313    2.857168    -4.322941    7.082616    1.222012    10.910141    15.872105    18.141972    -4.935054    -16.099874    17.474710    -16.913979    27.951509    5.554130    -43.420662    15.264957    -32.386166    6.015017    -30.325720    -81.875320    10.863171    -25.618567    1.122689    5.278155    25.768408    14.507674    30.366383    37.128971    41.836498    -23.071053    -0.020009    40.123428    -3.281044    8.569544    -2.234683    35.093723    -7.240523    12.120053    -14.088083    12.719726    27.720373    4.325346    -6.827044    29.652185    0.000000    0.000000    0.000000    -2.119166    -0.392594    -10.410213    3.315789    18.919643    -4.756030    11.203733    -11.933363    -25.360882    0.000000    0.000000    0.000000    
-0.118967    0.873031    0.566895    -2.264201    -7.266088    48.433903    1.392867    0.819866    3.587375    -4.288859    6.816518    1.455841    10.931000    15.486326    17.904217    -4.811422    -16.102007    17.220503    -17.019197    27.877872    5.449782    -43.135174    15.564356    -32.565056    6.580355    -30.379065    -81.482712    10.970054    -25.275478    0.989949    5.406452    25.607800    14.042838    30.938028    36.902225    41.145603    -22.702059    -0.367230    40.476501    -4.306375    8.178489    -2.026133    36.285641    -5.584235    13.693897    -14.233415    12.171276    28.867865    4.385147    -7.215600    29.588886    0.000000    0.000000    0.000000    -1.348555    -0.013896    -9.459313    2.852990    18.768330    -5.529191    12.658027    -10.467830    -25.898251    0.000000    0.000000    0.000000    
-0.109657    0.871039    0.559994    -1.919811    -5.906043    51.622406    -0.001241    -0.316348    2.033005    -4.088322    7.032244    0.930651    10.784185    15.229675    17.671040    -4.489957    -16.144117    17.038469    -17.052811    28.042286    5.377378    -42.750183    15.977777    -32.953533    7.056655    -30.551640    -80.985512    11.443146    -25.115919    1.119343    5.523770    25.606171    13.674390    31.488783    36.721573    40.437634    -22.106251    -1.169773    40.694206    -6.625360    7.251752    -2.150581    34.543545    -7.406818    12.953110    -14.000428    12.211359    29.767448    4.482278    -7.795075    29.589630    0.000000    0.000000    0.000000    -3.504139    0.068517    -12.645392    2.916334    19.037308    -4.730947    13.403498    -11.643119    -25.962141    0.000000    0.000000    0.000000    
